# xmcd CD database file
#
# Track frame offsets:
#	150
#	16776
#	33339
#	61851
#	74396
#	103277
#	124356
#	145126
#	159164
#	174145
#
# Disc length: 2511 seconds
#
# Revision: 0
# Processed by: cddbd v1.4PL0 Copyright (c) Steve Scherf et al.
# Submitted via: CDex 1.40Release
#
DISCID=7d09cd0a
DTITLE=Vibra Kings - Crown This
DYEAR=2001
DGENRE=Blues
TTITLE0=Blues in E
TTITLE1=Vibra Kings Blues
TTITLE2=Salty Love
TTITLE3=Runnin' Train
TTITLE4=All alone
TTITLE5=Matt's Hands
TTITLE6=Train Song
TTITLE7=I'm Tired Baby
TTITLE8=Ghetto Blues
TTITLE9=Can't Love You Enough
EXTD=YEAR: 2001 ID3G: 0
EXTT0=
EXTT1=
EXTT2=
EXTT3=
EXTT4=
EXTT5=
EXTT6=
EXTT7=
EXTT8=
EXTT9=
PLAYORDER=
